<svg width="48" height="48" viewBox="0 0 48 48" fill="none" xmlns="http://www.w3.org/2000/svg">
<g clip-path="url(#clip0_1_342)">
<path fill-rule="evenodd" clip-rule="evenodd" d="M24.0199 0C10.7376 0 6.10352e-05 10.8167 6.10352e-05 24.1983C6.10352e-05 34.895 6.87994 43.9495 16.4242 47.1542C17.6174 47.3951 18.0545 46.6335 18.0545 45.9929C18.0545 45.4319 18.0152 43.509 18.0152 41.5055C11.3335 42.948 9.94204 38.6209 9.94204 38.6209C8.86824 35.8164 7.27721 35.0956 7.27721 35.0956C5.09028 33.6132 7.43651 33.6132 7.43651 33.6132C9.86239 33.7735 11.1353 36.0971 11.1353 36.0971C13.2824 39.7827 16.7423 38.7413 18.1342 38.1002C18.3328 36.5377 18.9695 35.456 19.6456 34.8552C14.3164 34.2942 8.70944 32.211 8.70944 22.9161C8.70944 20.2719 9.66327 18.1086 11.1747 16.4261C10.9362 15.8253 10.1009 13.3409 11.4136 10.0157C11.4136 10.0157 13.4417 9.3746 18.0147 12.4996C19.9726 11.9699 21.9917 11.7005 24.0199 11.6982C26.048 11.6982 28.1155 11.979 30.0246 12.4996C34.5981 9.3746 36.6262 10.0157 36.6262 10.0157C37.939 13.3409 37.1032 15.8253 36.8647 16.4261C38.4159 18.1086 39.3304 20.2719 39.3304 22.9161C39.3304 32.211 33.7234 34.2539 28.3544 34.8552C29.2296 35.6163 29.9848 37.0583 29.9848 39.3421C29.9848 42.5871 29.9455 45.1915 29.9455 45.9924C29.9455 46.6335 30.3831 47.3951 31.5758 47.1547C41.1201 43.9491 48 34.895 48 24.1983C48.0393 10.8167 37.2625 0 24.0199 0Z" fill="#DCDCDC"/>
</g>
<defs>
<clipPath id="clip0_1_342">
<rect width="48" height="48" fill="white"/>
</clipPath>
</defs>
</svg>
