<svg width="48" height="48" viewBox="0 0 48 48" fill="none" xmlns="http://www.w3.org/2000/svg">
<g clip-path="url(#clip0_1_338)">
<path d="M44.4469 0H3.54381C1.58444 0 6.10352e-05 1.54688 6.10352e-05 3.45938V44.5312C6.10352e-05 46.4437 1.58444 48 3.54381 48H44.4469C46.4063 48 48.0001 46.4438 48.0001 44.5406V3.45938C48.0001 1.54688 46.4063 0 44.4469 0ZM14.2407 40.9031H7.11569V17.9906H14.2407V40.9031ZM10.6782 14.8688C8.39069 14.8688 6.54381 13.0219 6.54381 10.7437C6.54381 8.46562 8.39069 6.61875 10.6782 6.61875C12.9563 6.61875 14.8032 8.46562 14.8032 10.7437C14.8032 13.0125 12.9563 14.8688 10.6782 14.8688ZM40.9032 40.9031H33.7876V29.7656C33.7876 27.1125 33.7407 23.6906 30.0844 23.6906C26.3813 23.6906 25.8188 26.5875 25.8188 29.5781V40.9031H18.7126V17.9906H25.5376V21.1219H25.6313C26.5782 19.3219 28.9032 17.4188 32.3626 17.4188C39.5719 17.4188 40.9032 22.1625 40.9032 28.3313V40.9031Z" fill="#DCDCDC"/>
</g>
<defs>
<clipPath id="clip0_1_338">
<rect width="48" height="48" fill="white"/>
</clipPath>
</defs>
</svg>
